<svg id="Group_50" data-name="Group 50" xmlns="http://www.w3.org/2000/svg" xmlns:xlink="http://www.w3.org/1999/xlink" width="1387" height="270.249" viewBox="0 0 1387 270.249">
  <defs>
    <clipPath id="clip-path">
      <rect id="Rectangle_213" data-name="Rectangle 213" width="1387" height="270.249" fill="none"/>
    </clipPath>
  </defs>
  <g id="Group_49" data-name="Group 49" clip-path="url(#clip-path)">
    <path id="Path_2" data-name="Path 2" d="M0,190.8l11.075-11.745c8.054,11.075,22.819,19.8,45.975,19.8,23.829,0,38.928-9.06,38.928-26.51,0-11.745-6.709-18.795-28.861-22.821l-23.491-4.362c-24.5-4.7-37.249-18.459-37.249-37.587C6.377,82.068,29.2,65.29,60.408,65.29c22.819,0,41.613,9.06,50,23.825L99.334,100.526C92.289,88.109,77.186,80.055,58.393,80.055c-20.135,0-34.232,9.06-34.232,27.183,0,12.418,7.049,19.8,27.521,23.493l21.812,4.026c25.506,4.7,40.273,16.78,40.273,36.915,0,25.842-23.827,41.949-58.395,41.949C30.2,213.621,9.062,204.895,0,190.8" transform="translate(0 56.628)" fill="#fff"/>
    <path id="Path_3" data-name="Path 3" d="M100.341,178.286v-74.5H70.809V90.7H82.218c17.452,0,21.142-8.39,21.142-22.484V42.707h3.021c6.711,0,10.069-.336,12.752-1.679v47.99h58.393v14.767H119.134V180.3c0,27.855,13.088,38.594,30.54,38.594,11.409,0,20.808-4.7,27.183-13.422l12.752,9.058c-7.718,12.754-22.484,20.135-39.935,20.135-29.868,0-49.333-19.8-49.333-56.378" transform="translate(61.414 35.585)" fill="#fff"/>
    <path id="Path_4" data-name="Path 4" d="M347.988,178.286v-74.5H318.454V90.7h11.409c17.452,0,21.142-8.39,21.142-22.484V42.707h3.021c6.711,0,10.069-.336,12.752-1.679v47.99h58.393v14.767H366.779V180.3c0,27.855,13.088,38.594,30.54,38.594,11.409,0,20.808-4.7,27.183-13.422l12.752,9.058c-7.718,12.754-22.484,20.135-39.935,20.135-29.868,0-49.331-19.8-49.331-56.378" transform="translate(276.203 35.585)" fill="#fff"/>
    <path id="Path_5" data-name="Path 5" d="M394.3,162.815V67.507h6.041c6.713,0,10.069-.336,12.752-1.677v94.636c0,25.842,10.739,36.245,33.9,36.245,28.861,0,49.333-18.122,49.333-49.669V67.507h6.041c6.711,0,10.069-.336,12.752-1.677V210.469H496.317V178.588c-8.39,22.484-28.861,34.566-54.031,34.566-30.874,0-47.99-16.78-47.99-50.339" transform="translate(341.983 57.096)" fill="#fff"/>
    <path id="Path_6" data-name="Path 6" d="M488.29,67.973h6.039c7.049,0,10.069-.336,12.752-1.677V100.19c8.392-22.484,29.534-34.9,55.038-34.9,30.874,0,48.326,16.778,48.326,50.337v95.308H591.652V117.977c0-25.84-11.075-36.243-34.232-36.243-29.532,0-50.339,18.121-50.339,49.331v79.871H488.29Z" transform="translate(423.506 56.628)" fill="#fff"/>
    <path id="Path_7" data-name="Path 7" d="M576.712,139.793c0-40.943,30.2-74.5,68.8-74.5,38.258,0,66.783,32.217,66.783,77.186H595.5c.67,30.54,21.814,55.71,54.7,55.71,22.148,0,37.587-10.4,45.977-29.2l14.094,7.72c-10.739,23.155-31.881,36.913-60.072,36.913-42.62,0-73.494-33.558-73.494-73.828M595.5,129.724h98.664c-2.349-27.183-21.478-50-49.331-50-28.191,0-46.984,22.821-49.333,50" transform="translate(500.196 56.628)" fill="#fff"/>
    <path id="Path_8" data-name="Path 8" d="M666.574,175.463c0-39.936,31.209-74.166,67.79-74.166,26.512,0,46.648,16.78,55.708,40.271V25.454h6.043c7.045,0,10.067-.336,12.752-1.679v223.17H790.072V209.359c-9.06,23.491-29.2,40.269-55.708,40.269-36.581,0-67.79-34.23-67.79-74.165m123.834,0c0-33.223-24.161-58.057-51.682-58.057-30.2,0-53.023,25.84-53.023,58.057s22.819,58.057,53.023,58.057c27.521,0,51.682-24.834,51.682-58.057" transform="translate(578.136 20.621)" fill="#fff"/>
    <path id="Path_9" data-name="Path 9" d="M201.771,39.393,214.211,0c9.848,41.466,29.8,84.228,58.311,153.685q43.152,104.183,43.021,113.772H278.482c0-7.776-7.256-32.4-22.029-73.862H155.381l7-23.065H248.42c-27.472-68.419-46.65-126.732-46.65-131.137" transform="translate(134.766)" fill="#fff"/>
    <path id="Path_10" data-name="Path 10" d="M265.022,34.871a22.862,22.862,0,0,1-5.961,15.549c-3.888,4.407-9.331,6.48-16.328,6.48a18.019,18.019,0,0,1-13.994-5.7,19.545,19.545,0,0,1-4.924-13.736,22.231,22.231,0,0,1,5.961-15.292,22.052,22.052,0,0,1,16.586-6.478,17.484,17.484,0,0,1,13.736,5.7,21.561,21.561,0,0,1,4.924,13.476" transform="translate(194.099 13.592)" fill="#fff"/>
    <path id="Path_11" data-name="Path 11" d="M258.337,222.076H226.72q2.333-34.987,2.332-80.082c0-33.69-2.073-62.2-6.22-85l34.986-4.666c-1.3,24.363-2.073,54.425-2.073,89.671.26,27.989,1.036,54.685,2.592,80.082" transform="translate(193.268 45.381)" fill="#fff"/>
  </g>
</svg>
