<svg id="Instagram" xmlns="http://www.w3.org/2000/svg" width="56.144" height="56.144" viewBox="0 0 56.144 56.144">
  <circle id="Ellisse_34" data-name="Ellisse 34" cx="19" cy="19" r="19" transform="translate(10 10)" fill="#1a1e3b"/>
  <path id="Tracciato_217" data-name="Tracciato 217" d="M0,28.072A28.072,28.072,0,1,1,28.072,56.144,28.072,28.072,0,0,1,0,28.072ZM28.073,13.1c-4.066,0-4.576.018-6.173.09a10.988,10.988,0,0,0-3.634.7,7.659,7.659,0,0,0-4.38,4.378,10.937,10.937,0,0,0-.7,3.634c-.071,1.6-.09,2.108-.09,6.174s.018,4.575.09,6.172a11,11,0,0,0,.7,3.634,7.662,7.662,0,0,0,4.378,4.38,11,11,0,0,0,3.634.7c1.6.073,2.107.091,6.173.091s4.575-.018,6.172-.091a11.005,11.005,0,0,0,3.636-.7,7.672,7.672,0,0,0,4.378-4.38,11.1,11.1,0,0,0,.7-3.634c.072-1.6.09-2.106.09-6.172s-.019-4.576-.09-6.173a11.091,11.091,0,0,0-.7-3.634,7.66,7.66,0,0,0-4.379-4.379,11.023,11.023,0,0,0-3.637-.7c-1.6-.073-2.105-.09-6.173-.09Z" fill="#fff" fill-rule="evenodd"/>
  <path id="Tracciato_218" data-name="Tracciato 218" d="M24.438,13.507h1.343c4,0,4.471.014,6.05.086a8.291,8.291,0,0,1,2.78.516,4.961,4.961,0,0,1,2.841,2.842,8.272,8.272,0,0,1,.516,2.779c.072,1.578.087,2.052.087,6.048s-.016,4.47-.087,6.048a8.281,8.281,0,0,1-.516,2.779,4.965,4.965,0,0,1-2.841,2.84,8.26,8.26,0,0,1-2.78.516c-1.578.072-2.052.087-6.05.087s-4.472-.016-6.05-.087a8.3,8.3,0,0,1-2.78-.516A4.959,4.959,0,0,1,14.109,34.6a8.273,8.273,0,0,1-.516-2.779c-.072-1.578-.086-2.052-.086-6.051s.014-4.47.086-6.048a8.287,8.287,0,0,1,.516-2.78A4.961,4.961,0,0,1,16.952,14.1a8.27,8.27,0,0,1,2.78-.516c1.381-.062,1.916-.081,4.707-.084Zm9.335,2.486a1.8,1.8,0,1,0,1.8,1.8A1.8,1.8,0,0,0,33.773,15.993Zm-7.992,2.1a7.688,7.688,0,1,0,7.687,7.689A7.689,7.689,0,0,0,25.782,18.092Z" transform="translate(2.291 2.291)" fill="#fff" fill-rule="evenodd"/>
  <path id="Tracciato_219" data-name="Tracciato 219" d="M24.725,19.733a4.991,4.991,0,1,1-4.991,4.991A4.991,4.991,0,0,1,24.725,19.733Z" transform="translate(3.348 3.348)" fill="#fff" fill-rule="evenodd"/>
</svg>
