<?xml version="1.0" encoding="UTF-8" standalone="no"?>
<svg
   xmlns:dc="http://purl.org/dc/elements/1.1/"
   xmlns:cc="http://creativecommons.org/ns#"
   xmlns:rdf="http://www.w3.org/1999/02/22-rdf-syntax-ns#"
   xmlns:svg="http://www.w3.org/2000/svg"
   xmlns="http://www.w3.org/2000/svg"
   xmlns:sodipodi="http://sodipodi.sourceforge.net/DTD/sodipodi-0.dtd"
   xmlns:inkscape="http://www.inkscape.org/namespaces/inkscape"
   id="Instagram"
   width="56.144"
   height="56.144"
   viewBox="0 0 56.144 56.144"
   version="1.1"
   sodipodi:docname="tiktok_3.svg"
   inkscape:version="0.92.3 (2405546, 2018-03-11)">
  <metadata
     id="metadata11">
    <rdf:RDF>
      <cc:Work
         rdf:about="">
        <dc:format>image/svg+xml</dc:format>
        <dc:type
           rdf:resource="http://purl.org/dc/dcmitype/StillImage" />
        <dc:title></dc:title>
      </cc:Work>
    </rdf:RDF>
  </metadata>
  <defs
     id="defs9" />
  <sodipodi:namedview
     pagecolor="#ffffff"
     bordercolor="#666666"
     borderopacity="1"
     objecttolerance="10"
     gridtolerance="10"
     guidetolerance="10"
     inkscape:pageopacity="0"
     inkscape:pageshadow="2"
     inkscape:window-width="1920"
     inkscape:window-height="993"
     id="namedview7"
     showgrid="false"
     inkscape:zoom="8.4069534"
     inkscape:cx="-6.4113296"
     inkscape:cy="25.69769"
     inkscape:window-x="0"
     inkscape:window-y="26"
     inkscape:window-maximized="1"
     inkscape:current-layer="Instagram" />
  <path
     id="Tracciato_217"
     data-name="Tracciato 217"
     d="M 0,28.072 C 0,3.0607797 30.237433,-9.4603529 47.920893,8.2231068 55.949386,16.251599 58.351704,28.325284 54.006952,38.814851 49.66219,49.304439 39.426052,56.144 28.072,56.144 12.568263,56.144 0,43.575737 0,28.072 Z"
     style="fill:#fafafa;fill-opacity:1;fill-rule:evenodd"
     inkscape:connector-curvature="0"
     sodipodi:nodetypes="sssss" />
  <path
     class="cls-4"
     d="m 39.382414,21.874868 c -1.62238,-0.312174 -3.067349,-1.224722 -4.046452,-2.55548 -1.237507,-0.968508 -2.086337,-2.348967 -2.392137,-3.890365 h -3.573921 v 18.361456 c -1.81e-4,1.790872 -1.192943,3.362476 -2.917751,3.844416 -1.724808,0.481932 -4.116033,0.382345 -5.253185,-1.009922 -1.591081,-1.428755 -1.511964,-3.981522 -0.683074,-5.781265 0.828889,-1.799751 2.852373,-2.719206 4.753229,-2.159846 v -3.354254 c -3.21759,0.04144 -6.133235,1.904222 -7.52308,4.80645 -1.389844,2.902229 -0.804633,6.237244 1.458456,8.630912 2.243546,2.312946 5.546496,2.802667 8.521267,1.410491 2.974771,-1.392168 4.875264,-4.379944 4.875224,-7.664369 l 0.13677,-9.281122 c 1.926616,1.414319 4.255102,2.175307 6.645108,2.171737 z"
     id="path42"
     inkscape:connector-curvature="0"
     style="opacity:1;fill:#1a1e3b;fill-opacity:1;stroke-width:0.09069712"
     sodipodi:nodetypes="cccccscsccscscccc" />
</svg>
