<svg id="Group_52" data-name="Group 52" xmlns="http://www.w3.org/2000/svg" xmlns:xlink="http://www.w3.org/1999/xlink" width="780" height="453.673" viewBox="0 0 780 453.673">
  <defs>
    <clipPath id="clip-path">
      <rect id="Rectangle_215" data-name="Rectangle 215" width="780" height="453.673" fill="none"/>
    </clipPath>
  </defs>
  <g id="Group_51" data-name="Group 51" clip-path="url(#clip-path)">
    <path id="Path_13" data-name="Path 13" d="M707.651,47.465a23.773,23.773,0,1,1-23.774,23.774,23.774,23.774,0,0,1,23.774-23.774" transform="translate(48.576 3.371)" fill="#fff"/>
    <path id="Path_14" data-name="Path 14" d="M605.3,231.5h0a15.554,15.554,0,1,1-6.716,20.945A15.6,15.6,0,0,1,605.3,231.5" transform="translate(42.397 16.323)" fill="#fff"/>
    <path id="Path_15" data-name="Path 15" d="M6.266,379.259h0a11.327,11.327,0,0,1,15.289,4.949.086.086,0,0,0,.089.088,11.442,11.442,0,1,1-15.378-5.037h0" transform="translate(0 26.85)" fill="#fff"/>
    <path id="Path_16" data-name="Path 16" d="M334.9,359.039h0a22.312,22.312,0,1,1-9.633,30.048,22.376,22.376,0,0,1,9.633-30.048" transform="translate(22.927 25.329)" fill="#fff"/>
    <path id="Path_17" data-name="Path 17" d="M169.885,259.266C66.339,308.368-.8,373.5,14.9,413.583c7.014,17.7,28.392,26.054,58.788,30.73,114.569,13.7,255.859-26.72,355.4-65.134C644.194,294,789.159,164.405,758.763,87.246,733.043,22.78,594.425,14.763,422.738,64.2l-.667-3.675c175.027-50.437,322-43.756,348.048,22.046,31.064,78.495-121.249,212.437-340.033,299.282-140.622,55.446-275.9,78.829-361.744,66.8-31.4-5.009-51.774-13.026-60.123-31.731C-7.814,376.173,64.668,309.035,169.885,259.266" transform="translate(0.426 1.939)" fill="#fff"/>
    <path id="Path_18" data-name="Path 18" d="M280.867,50.772,296.9,0c12.693,53.443,38.412,108.556,75.154,198.074Q427.668,332.352,427.5,344.71H379.737c0-10.021-9.352-41.753-28.392-95.2H221.078l9.018-29.729H340.991C305.584,131.6,280.867,56.451,280.867,50.772" transform="translate(15.703 0)" fill="#fff"/>
    <path id="Path_19" data-name="Path 19" d="M427.94,59.961A29.471,29.471,0,0,1,420.258,80c-5.01,5.679-12.024,8.351-21.044,8.351A23.233,23.233,0,0,1,381.177,81a25.2,25.2,0,0,1-6.346-17.7,27.452,27.452,0,0,1,29.06-28.058,22.539,22.539,0,0,1,17.7,7.348,27.781,27.781,0,0,1,6.346,17.369" transform="translate(26.622 2.501)" fill="#fff"/>
    <path id="Path_20" data-name="Path 20" d="M418.407,336.359H377.656q3.006-45.092,3.006-103.212c0-43.423-2.672-80.166-8.017-109.559l45.092-6.013c-1.67,31.4-2.672,70.145-2.672,115.572.334,36.073,1.337,70.478,3.341,103.212" transform="translate(26.469 8.351)" fill="#fff"/>
  </g>
</svg>
