<svg id="Clock" xmlns="http://www.w3.org/2000/svg" width="19.182" height="19.182" viewBox="0 0 19.182 19.182">
  <path id="Tracciato_13" data-name="Tracciato 13" d="M2.877,2.877A8.707,8.707,0,0,1,9.591,0,8.707,8.707,0,0,1,16.3,2.877a8.707,8.707,0,0,1,2.877,6.714A8.707,8.707,0,0,1,16.3,16.3a8.707,8.707,0,0,1-6.714,2.877A8.707,8.707,0,0,1,2.877,16.3,9.571,9.571,0,0,1,0,9.591,8.707,8.707,0,0,1,2.877,2.877ZM13.907,13.907l1.119-1.119-4-4L9.591,2.4h-1.6V9.591a1.451,1.451,0,0,0,.48,1.119.558.558,0,0,0,.32.16Z" fill="#707070"/>
</svg>
