<svg id="LinkedIn" xmlns="http://www.w3.org/2000/svg" width="56.144" height="56.144" viewBox="0 0 56.144 56.144">
  <path id="linkedin_black_logo_icon_147114" d="M0,28.072A28.072,28.072,0,1,1,28.072,56.144,28.072,28.072,0,0,1,0,28.072ZM19.838,23.25H13.476V42.365h6.362Zm.419-5.913a3.3,3.3,0,0,0-3.558-3.3,3.312,3.312,0,1,0-.083,6.605h.041A3.318,3.318,0,0,0,20.257,17.338ZM42.781,31.405c0-5.871-3.138-8.6-7.325-8.6a6.317,6.317,0,0,0-5.734,3.157V23.251H23.359c.084,1.794,0,19.114,0,19.114h6.363V31.69a4.346,4.346,0,0,1,.209-1.55A3.481,3.481,0,0,1,33.2,27.817c2.3,0,3.224,1.753,3.224,4.321V42.365h6.361Z" fill="#fff" fill-rule="evenodd"/>
</svg>
